HIERARCHY
ROOT hip
{
  OFFSET 0 0 0
  CHANNELS 6 Xposition Yposition Zposition Zrotation Yrotation Xrotation
  JOINT abdomen
  {
    OFFSET 0 20.6881 -0.73152
    CHANNELS 3 Zrotation Xrotation Yrotation
    JOINT chest
    {
      OFFSET 0 11.7043 -0.48768
      CHANNELS 3 Zrotation Xrotation Yrotation
      JOINT neck
      {
        OFFSET 0 22.1894 -2.19456
        CHANNELS 3 Zrotation Xrotation Yrotation
        JOINT head
        {
          OFFSET -0.24384 7.07133 1.2192
          CHANNELS 3 Zrotation Xrotation Yrotation
          JOINT leftEye
          {
            OFFSET 4.14528 8.04674 8.04672
            CHANNELS 3 Zrotation Xrotation Yrotation
            End Site
            {
              OFFSET 1 0 0
            }
          }
          JOINT rightEye
          {
            OFFSET -3.6576 8.04674 8.04672
            CHANNELS 3 Zrotation Xrotation Yrotation
            End Site
            {
              OFFSET 1 0 0
            }
          }
        }
      }
      JOINT rCollar
      {
        OFFSET -2.68224 19.2634 -4.8768
        CHANNELS 3 Zrotation Xrotation Yrotation
        JOINT rShldr
        {
          OFFSET -8.77824 -1.95073 1.46304
          CHANNELS 3 Zrotation Xrotation Yrotation
          JOINT rForeArm
          {
            OFFSET -28.1742 -1.7115 0.48768
            CHANNELS 3 Zrotation Xrotation Yrotation
            JOINT rHand
            {
              OFFSET -22.5879 0.773209 7.07136
              CHANNELS 3 Zrotation Xrotation Yrotation
              JOINT rThumb1
              {
                OFFSET -1.2192 -0.487915 3.41376
                CHANNELS 3 Zrotation Xrotation Yrotation
                JOINT rThumb2
                {
                  OFFSET -3.37035 -0.52449 3.41376
                  CHANNELS 3 Zrotation Xrotation Yrotation
                  End Site
                  {
                    OFFSET -1.78271 -1.18214 1.43049
                  }
                }
              }
              JOINT rIndex1
              {
                OFFSET -7.75947 0.938293 5.60832
                CHANNELS 3 Zrotation Xrotation Yrotation
                JOINT rIndex2
                {
                  OFFSET -2.54057 -0.884171 1.56538
                  CHANNELS 3 Zrotation Xrotation Yrotation
                  End Site
                  {
                    OFFSET -1.62519 -0.234802 1.16502
                  }
                }
              }
              JOINT rMid1
              {
                OFFSET -8.24714 1.18213 3.41376
                CHANNELS 3 Zrotation Xrotation Yrotation
                JOINT rMid2
                {
                  OFFSET -3.10165 -0.590103 1.0647
                  CHANNELS 3 Zrotation Xrotation Yrotation
                  End Site
                  {
                    OFFSET -2.48547 -0.328903 0.83742
                  }
                }
              }
              JOINT rRing1
              {
                OFFSET -8.82822 0.546677 1.51678
                CHANNELS 3 Zrotation Xrotation Yrotation
                JOINT rRing2
                {
                  OFFSET -2.60934 -0.819778 -0.0198488
                  CHANNELS 3 Zrotation Xrotation Yrotation
                  End Site
                  {
                    OFFSET -2.33842 -0.294052 0.168128
                  }
                }
              }
              JOINT rPinky1
              {
                OFFSET -8.27202 -0.0477905 -0.4584
                CHANNELS 3 Zrotation Xrotation Yrotation
                JOINT rPinky2
                {
                  OFFSET -1.82734 -0.647385 -0.700984
                  CHANNELS 3 Zrotation Xrotation Yrotation
                  End Site
                  {
                    OFFSET -1.69225 -0.51767 -0.607171
                  }
                }
              }
            }
          }
        }
      }
      JOINT lCollar
      {
        OFFSET 2.68224 19.2634 -4.8768
        CHANNELS 3 Zrotation Xrotation Yrotation
        JOINT lShldr
        {
          OFFSET 8.77824 -1.95073 1.46304
          CHANNELS 3 Zrotation Xrotation Yrotation
          JOINT lForeArm
          {
            OFFSET 28.1742 -1.7115 0.48768
            CHANNELS 3 Zrotation Xrotation Yrotation
            JOINT lHand
            {
              OFFSET 22.5879 0.773209 7.07136
              CHANNELS 3 Zrotation Xrotation Yrotation
              JOINT lThumb1
              {
                OFFSET 1.2192 -0.487915 3.41376
                CHANNELS 3 Zrotation Xrotation Yrotation
                JOINT lThumb2
                {
                  OFFSET 3.37035 -0.52449 3.41376
                  CHANNELS 3 Zrotation Xrotation Yrotation
                  End Site
                  {
                    OFFSET 1.78271 -1.18214 1.43049
                  }
                }
              }
              JOINT lIndex1
              {
                OFFSET 7.75947 0.938293 5.60832
                CHANNELS 3 Zrotation Xrotation Yrotation
                JOINT lIndex2
                {
                  OFFSET 2.54057 -0.884171 1.56538
                  CHANNELS 3 Zrotation Xrotation Yrotation
                  End Site
                  {
                    OFFSET 1.62519 -0.234802 1.16502
                  }
                }
              }
              JOINT lMid1
              {
                OFFSET 8.24714 1.18213 3.41376
                CHANNELS 3 Zrotation Xrotation Yrotation
                JOINT lMid2
                {
                  OFFSET 3.10165 -0.590103 1.0647
                  CHANNELS 3 Zrotation Xrotation Yrotation
                  End Site
                  {
                    OFFSET 2.48547 -0.328903 0.83742
                  }
                }
              }
              JOINT lRing1
              {
                OFFSET 8.82822 0.546677 1.51678
                CHANNELS 3 Zrotation Xrotation Yrotation
                JOINT lRing2
                {
                  OFFSET 2.60934 -0.819778 -0.0198488
                  CHANNELS 3 Zrotation Xrotation Yrotation
                  End Site
                  {
                    OFFSET 2.33842 -0.294052 0.168128
                  }
                }
              }
              JOINT lPinky1
              {
                OFFSET 8.27202 -0.0477905 -0.4584
                CHANNELS 3 Zrotation Xrotation Yrotation
                JOINT lPinky2
                {
                  OFFSET 1.82734 -0.647385 -0.700984
                  CHANNELS 3 Zrotation Xrotation Yrotation
                  End Site
                  {
                    OFFSET 1.69225 -0.51767 -0.607171
                  }
                }
              }
            }
          }
        }
      }
    }
  }
  JOINT rButtock
  {
    OFFSET -8.77824 4.35084 1.2192
    CHANNELS 3 Zrotation Xrotation Yrotation
    JOINT rThigh
    {
      OFFSET 0 -1.70687 -2.19456
      CHANNELS 3 Zrotation Xrotation Yrotation
      JOINT rShin
      {
        OFFSET 0 -36.8199 0.73152
        CHANNELS 3 Zrotation Xrotation Yrotation
        JOINT rFoot
        {
          OFFSET 0.73152 -45.1104 -5.12064
          CHANNELS 3 Zrotation Xrotation Yrotation
          End Site
          {
            OFFSET -1.1221 -3.69964 12.103
          }
        }
      }
    }
  }
  JOINT lButtock
  {
    OFFSET 8.77824 4.35084 1.2192
    CHANNELS 3 Zrotation Xrotation Yrotation
    JOINT lThigh
    {
      OFFSET 0 -1.70687 -2.19456
      CHANNELS 3 Zrotation Xrotation Yrotation
      JOINT lShin
      {
        OFFSET 0 -36.8199 0.73152
        CHANNELS 3 Zrotation Xrotation Yrotation
        JOINT lFoot
        {
          OFFSET -0.73152 -45.1104 -5.12064
          CHANNELS 3 Zrotation Xrotation Yrotation
          End Site
          {
            OFFSET 1.1221 -3.69964 12.103
          }
        }
      }
    }
  }
}
MOTION
Frames:	4
Frame Time:	0.03333
0.02377687767148018 20.889387130737305 0.06459406763315201 -7.831359654664993 -11.310017108917236 1.9189254194498062 0.13780184090137482 13.784463554620743 8.835616931319237 4.0089791268110275 -6.949085891246796 0.361295398324728 -6.062760651111603 8.835173696279526 -1.9154948741197586 -0.6495398283004761 -18.600054681301117 -8.15636694431305 -9.875726625323296 -3.1916359439492226 -1.3553393259644508 6.436393037438393 1.6048122569918633 2.6673395186662674 -0.01738138496875763 -3.146681785583496 -1.0692331194877625 26.907400488853455 27.147659361362457 14.871215522289276 -14.897506535053253 -24.606295824050903 44.82393443584442 -2.64792300760746 -5.318268612027168 0.7372651621699333 4.91241417825222 3.1700270622968674 -3.111847937107086 6.095644533634186 -2.1859487146139145 2.627371922135353 0.4970709979534149 -5.666384473443031 1.532588079571724 1.3291572779417038 5.051659047603607 0.12679338455200195 1.4529462531208992 3.2421640679240227 2.030627354979515 0.1673198863863945 1.547682210803032 -5.4797617346048355 0.13599738478660583 6.293413862586021 2.4298835545778275 4.849073812365532 -4.148715175688267 2.683293968439102 -6.402080208063126 7.3829385638237 -4.759972840547562 3.459959775209427 -3.584042116999626 5.577317029237747 2.5137912668287754 0.18182829022407532 -3.805350176990032 -46.71668350696564 20.587981939315796 -20.690807104110718 19.74134400486946 -20.042184591293335 -42.26894795894623 -4.9210575968027115 -1.5595000237226486 -1.3232383131980896 2.566594071686268 1.1317696608603 -1.7474918626248837 1.8110640719532967 -4.185409136116505 -1.6370698437094688 -3.06739903986454 0.18035106360912323 5.622178316116333 -7.176848351955414 11.600503027439117 -0.06410479545593262 -2.6469592563807964 -4.365830272436142 1.9027704745531082 2.2026099264621735 7.780054360628128 4.527229517698288 -1.7015514895319939 -7.929902002215385 5.530794784426689 -9.850753247737885 0.9823573753237724 2.0932835899293423 -5.409729592502117 -0.0738392025232315 -7.518439069390297 0.45923274010419846 3.873790428042412 -2.5474125891923904 3.9613062143325806 -1.5175757557153702 -0.47210633754730225 -18.092370182275772 -26.723164916038513 -30.918177366256714 -3.699553459882736 37.40297019481659 11.758520007133484 0.6540278345346451 -11.790133863687515 -3.0313830077648163 -2.9751404374837875 0.8172744512557983 3.610176555812359 24.79368567466736 -28.470146656036377 5.904883146286011 13.645034283399582 46.09168589115143 -13.014831840991974 -1.6115114092826843 -3.9890778064727783 2.340386286377907
0.04371008835732937 59.084197998046875 0.27598676830530167 3.3707360923290253 -25.838046669960022 15.864003002643585 -4.060857072472572 15.140245109796524 11.444811522960663 -1.605393961071968 -12.420792281627655 4.751020297408104 0.5524720251560211 13.547717034816742 1.8134113401174545 -4.14341077208519 -24.881761372089386 3.918828070163727 0.9553723409771919 0.7070541847497225 -5.703209191560745 12.281926274299622 6.86090961098671 1.8529994040727615 -2.7509117871522903 -3.239574059844017 -1.4658620953559875 35.63417673110962 37.84872382879257 29.430307745933533 -20.566982924938202 -28.261958956718445 68.0259221792221 8.845626935362816 -9.210548177361488 5.770784765481949 7.585007473826408 -4.339436665177345 -3.410485088825226 9.123332798480988 -4.343431815505028 7.572238817811012 3.4664104878902435 -1.9431965611875057 7.37442322075367 1.9323056191205978 3.8831493258476257 0.39603352546691895 -4.583990089595318 -1.912655420601368 6.854906156659126 1.4468301460146904 -5.435608550906181 -5.369159504771233 10.29673084616661 8.405626639723778 6.365512982010841 5.7342778891325 -3.904159404337406 11.943380534648895 1.889299750328064 4.9054571986198425 -6.90864622592926 2.6475126296281815 -0.6110440939664841 2.1413958817720413 4.162829965353012 -0.8218623697757721 -0.19926239736378193 -55.08139908313751 24.06053602695465 -37.831297516822815 31.189783215522766 -22.482351064682007 -52.08485126495361 -13.066190779209137 -10.241542384028435 -3.864963948726654 0.6608577445149422 7.506186738610268 1.4249069429934025 0.9809767082333565 -6.29321001470089 -5.752734839916229 3.9663923531770706 1.1569634824991226 6.510414630174637 -7.578637897968292 16.948720514774323 -0.6992854177951813 8.26893925666809 -8.600311428308487 1.9267279654741287 8.881189674139023 6.599517613649368 -2.0762088149785995 -0.7570679951459169 -8.359518125653267 -1.82706780731678 -12.097639739513397 -1.7472905293107033 10.875029191374779 -7.504025548696518 2.5673682242631912 -6.4691756665706635 -1.3749100640416145 5.187160894274712 -5.5597250908613205 10.981610119342804 -4.791576638817787 -3.6710523068904877 -26.092668771743774 -41.681627333164215 -24.724897742271423 -16.133137196302414 50.517003536224365 10.989898145198822 1.4733494818210602 -17.58084073662758 -5.671038776636124 -7.629816457629204 5.0727251172065735 -3.801826424896717 26.586522459983826 -35.109901428222656 20.78925222158432 11.26321256160736 63.06027352809906 -7.63544574379921 -9.609888195991516 -3.283310830593109 7.685524597764015
0.060275159776210785 64.12113189697266 0.49521059542894363 0.5031381547451019 -26.952397227287292 22.729213535785675 -5.501189902424812 18.40279832482338 9.947062656283379 -3.944333866238594 -13.798015415668488 1.302525456994772 3.482474237680435 9.955670535564423 1.3598176091909409 -1.5342812240123749 -21.344126164913177 2.5569096207618713 -0.5123485252261162 1.5267961844801903 -4.950157888233662 12.146828770637512 1.5119005367159843 2.7411968261003494 -6.318021789193153 -0.4235469549894333 -5.103849470615387 37.583973705768585 37.942662835121155 30.150505006313324 -25.80817222595215 -30.945804119110107 72.78830230236053 8.143939599394798 -12.101689875125885 3.6024920269846916 11.347846984863281 -8.314309492707253 -2.2632935643196106 15.778571963310242 -1.2042736262083054 4.774437323212624 4.5240698754787445 -4.590574577450752 5.487564280629158 0.19451312720775604 -0.7282975316047668 3.199440836906433 -0.06207536906003952 -3.3853303268551826 6.143806949257851 4.721565954387188 -7.122836038470268 -1.5292690135538578 8.71770367026329 3.8734551519155502 1.9673071056604385 5.555162653326988 1.4725753292441368 6.017602980136871 -3.8854318857192993 7.020266354084015 -2.935318350791931 4.856141433119774 0.01414664089679718 1.2218166142702103 2.0508882589638233 -4.411580711603165 -1.4006613660603762 -58.077072501182556 21.571853756904602 -39.62527692317963 35.48960566520691 -21.27401053905487 -46.447813510894775 -9.19259749352932 -13.047149777412415 -1.3117825984954834 1.690482683479786 5.823454633355141 0.3677491284906864 2.1391331031918526 -2.763310130685568 -4.219803772866726 1.622651293873787 -0.9991731494665146 9.243194013834 -9.687405377626419 14.840681254863739 1.5994642674922943 10.23802399635315 -9.995430260896683 1.7946023494005203 11.501219719648361 5.792322903871536 -0.44731132686138153 -5.320310108363628 -4.393920376896858 -3.54918010532856 -6.269478499889374 1.23341616243124 6.502652987837791 -0.28055068105459213 0.9896660596132278 -9.231589436531067 -6.155941933393478 4.660455510020256 -6.074414178729057 7.280682027339935 -5.403291955590248 -2.9790665209293365 -26.564351320266724 -42.91380733251572 -19.05505523085594 -13.294909447431564 53.042399883270264 15.042332410812378 0.254720002412796 -15.320578068494797 -9.2796291410923 -10.003110095858574 1.4633944630622864 -3.3587362244725227 31.265689730644226 -30.841675400733948 18.109484016895294 13.926545530557632 57.49570369720459 -11.342910379171371 -5.526074767112732 -4.076987206935883 2.438029423356056
0.07769752480089664 65.24686431884766 0.7281786426901817 2.19776451587677 -27.745665907859802 23.875235617160797 -5.411807969212532 17.56309524178505 10.225706622004509 -3.3274687081575394 -13.963893949985504 1.9344243966042995 3.656962662935257 10.16895979642868 1.3676496595144272 -1.8988041579723358 -21.486733853816986 3.6015120148658752 0.41141901165246964 1.9256648048758507 -4.746883995831013 12.20829427242279 2.7299533411860466 2.423676922917366 -5.598216131329536 -1.116715595126152 -4.585721790790558 37.446019649505615 38.25362205505371 31.136967837810516 -25.356426537036896 -30.061769485473633 72.86694467067719 9.36263881623745 -11.333108246326447 3.9842669293284416 11.2276940792799 -8.03921140730381 -2.1418458223342896 15.37425309419632 -1.4818956702947617 5.32733179628849 5.04453644156456 -4.442854598164558 5.798550322651863 0.6318902224302292 -0.02733975648880005 3.0531638860702515 -1.6033370420336723 -3.4772925451397896 6.089830175042152 4.415064565837383 -7.086792513728142 -2.159899268299341 9.155644029378891 4.811965450644493 2.7037129551172256 5.816270336508751 1.3091858848929405 7.079961597919464 -2.36056387424469 6.210303604602814 -3.280266523361206 4.364241734147072 -0.014048740267753601 0.8538765460252762 2.7045479603111744 -3.52130725979805 -0.6795494724065065 -57.20484495162964 21.99484884738922 -40.27233302593231 35.539650321006775 -21.741042137145996 -47.74390518665314 -9.570901617407799 -12.82030999660492 -1.4750969409942627 1.6658814623951912 6.57429076731205 0.2952517010271549 2.0654796436429024 -3.7397654727101326 -4.598338566720486 2.7819932252168655 -0.30530713498592377 8.671733289957047 -9.0431347489357 14.835204184055328 1.1580316722393036 10.498868823051453 -9.858377426862717 1.3955969363451004 11.38412520289421 5.636250525712967 -0.9530606120824814 -4.267022721469402 -5.566694810986519 -3.8094616681337357 -7.20041960477829 0.45455094426870346 7.130855843424797 -0.900069884955883 1.4837289601564407 -8.851100653409958 -5.4267193749547005 4.654163047671318 -6.120381876826286 7.647136151790619 -5.326741710305214 -3.22242870926857 -26.141055822372437 -43.19221794605255 -18.551776260137558 -13.454168289899826 52.37179398536682 13.859392404556274 0.4038025438785553 -14.773300141096115 -8.387290388345718 -9.918878003954887 2.122804820537567 -3.90937227755785 29.962522387504578 -31.221272349357605 18.36597830057144 12.48026356101036 57.93073117733002 -9.569004625082016 -6.1189985275268555 -3.7710973620414734 3.9672962576150894
